<?xml version="1.0" ?><!DOCTYPE svg  PUBLIC '-//W3C//DTD SVG 1.1//EN'  'http://www.w3.org/Graphics/SVG/1.1/DTD/svg11.dtd'><svg enable-background="new 0 0 512 512" height="512px" id="Spellbook" version="1.1" viewBox="0 0 512 512" width="512px" xml:space="preserve" xmlns="http://www.w3.org/2000/svg" xmlns:xlink="http://www.w3.org/1999/xlink"><g><g><path d="M420.92,188.539c2.762,0,5-2.239,5-5V137.33c6.498-1.907,11.26-7.914,11.26-15.02V30.65c0-8.629-7.025-15.65-15.66-15.65    H397c-2.762,0-5,2.239-5,5s2.238,5,5,5h24.52c3.121,0,5.66,2.535,5.66,5.65v91.66c0,3.121-2.539,5.66-5.66,5.66h-0.6h-0.67    c-2.598,0-4.914-1.729-5.507-4.105c-3.404-13.709-13.989-24.903-28.307-29.939c-5.322-1.882-10.934-2.836-16.677-2.836    c-1.43,0-2.818,0.057-4.177,0.173c-1.868,0.175-3.585-0.612-4.759-2.017c-0.633-0.757-1.633-2.365-1.224-4.628    c0.007-0.039,0.013-0.077,0.02-0.116c0.03-0.194,0.122-0.785,0.321-3.144c0.093-1.071,0.192-2.456,0.208-3.134    c0.001-0.038,0.001-0.076,0.001-0.114c0-2.95-0.342-5.89-1.015-8.74c-0.354-1.5-0.798-2.971-1.325-4.407    c-4.917-13.402-17.109-23.79-32.373-27.344c-0.546-0.127-1.095-0.245-1.647-0.354c-2.791-0.551-4.74-2.848-4.74-5.584v-1.03    c0-3.115,2.535-5.65,5.65-5.65h35.992c2.762,0,5-2.239,5-5s-2.238-5-5-5H324.7c-6.88,0-12.725,4.468-14.817,10.65H202.116    C200.024,19.468,194.18,15,187.3,15H90.48c-8.635,0-15.66,7.021-15.66,15.65v91.66c0,7.103,4.757,13.107,11.25,15.017v232.187    c-6.493,1.91-11.25,7.914-11.25,15.017v48.405c0,2.762,2.238,5,5,5s5-2.238,5-5V384.53c0-3.121,2.539-5.66,5.66-5.66h0.59h0.439    c0.336,0,0.666,0.031,0.988,0.091c2.256,0.42,4.111,2.251,4.588,4.662c3.51,17.684,16.111,31.553,32.104,35.333    c2.912,0.687,5.883,1.05,8.843,1.022c0.704-0.014,2.134-0.12,3.14-0.207c0.589-0.049,1.066-0.092,1.456-0.129    c1.168-0.111,1.535-0.166,1.681-0.188c0.049-0.008,0.098-0.017,0.146-0.024c2.253-0.408,3.858,0.584,4.614,1.215    c1.297,1.082,2.04,2.658,2.04,4.326c0,0.139-0.003,0.283-0.021,0.48c-0.112,1.304-0.169,2.695-0.169,4.139    c0,5.764,0.951,11.375,2.824,16.673c5.048,14.313,16.238,24.896,29.936,28.31c2.382,0.594,4.11,2.906,4.11,5.498v1.279    c0,3.115-2.539,5.65-5.66,5.65H90.48c-3.121,0-5.66-2.535-5.66-5.65v-17.684c0-2.761-2.238-5-5-5s-5,2.239-5,5v17.684    c0,8.63,7.025,15.65,15.66,15.65h91.649c6.884,0,12.732-4.468,14.826-10.65h118.088c2.094,6.183,7.942,10.65,14.826,10.65h39.992    c2.762,0,5-2.238,5-5s-2.238-5-5-5H329.87c-3.121,0-5.66-2.535-5.66-5.65v-1.279c0-2.592,1.729-4.904,4.109-5.498    c13.698-3.413,24.889-13.996,29.935-28.305c1.875-5.303,2.826-10.914,2.826-16.678c0-1.443-0.057-2.835-0.174-4.196    c-0.014-0.14-0.017-0.284-0.017-0.423c0-1.668,0.743-3.244,2.04-4.326c0.756-0.629,2.355-1.622,4.614-1.215    c0.049,0.008,0.098,0.017,0.146,0.024c0.145,0.022,0.513,0.077,1.679,0.188c0.389,0.037,0.867,0.08,1.455,0.129    c1.009,0.087,2.438,0.193,3.143,0.207c2.924,0.033,5.931-0.336,8.844-1.023c15.992-3.779,28.594-17.648,32.104-35.336    c0.476-2.407,2.331-4.238,4.587-4.658c0.322-0.06,0.652-0.091,0.988-0.091h0.43h0.6c3.121,0,5.66,2.539,5.66,5.66v96.819    c0,3.115-2.539,5.65-5.66,5.65H405c-2.762,0-5,2.238-5,5s2.238,5,5,5h16.52c8.635,0,15.66-7.021,15.66-15.65V384.53    c0-7.106-4.762-13.112-11.26-15.02V215.667c0-2.761-2.238-5-5-5s-5,2.239-5,5v153.899c-0.181,0.056-0.355,0.124-0.533,0.187    c-0.11,0.039-0.221,0.074-0.33,0.115c-0.382,0.145-0.758,0.3-1.126,0.473c-0.033,0.016-0.064,0.034-0.098,0.051    c-0.333,0.159-0.66,0.332-0.98,0.514c-0.11,0.063-0.218,0.13-0.325,0.195c-0.246,0.147-0.487,0.301-0.725,0.462    c-0.111,0.075-0.222,0.151-0.331,0.229c-0.251,0.179-0.494,0.366-0.733,0.561c-0.078,0.063-0.158,0.121-0.234,0.186    c-0.311,0.26-0.61,0.531-0.899,0.814c-0.063,0.062-0.121,0.127-0.183,0.189c-0.225,0.228-0.443,0.461-0.654,0.702    c-0.09,0.102-0.176,0.206-0.262,0.31c-0.183,0.219-0.357,0.441-0.528,0.67c-0.08,0.107-0.161,0.214-0.238,0.324    c-0.194,0.274-0.38,0.557-0.558,0.846c-0.039,0.063-0.081,0.122-0.119,0.186c-0.209,0.352-0.404,0.713-0.588,1.082    c-0.052,0.104-0.098,0.212-0.147,0.318c-0.128,0.272-0.251,0.549-0.364,0.831c-0.053,0.134-0.104,0.268-0.154,0.403    c-0.103,0.276-0.196,0.557-0.284,0.841c-0.038,0.126-0.08,0.251-0.116,0.378c-0.115,0.409-0.219,0.822-0.303,1.245    c-2.749,13.853-12.403,24.665-24.595,27.547c-2.104,0.497-4.251,0.751-6.378,0.757c-0.015-0.001-0.037-0.002-0.054-0.003    c-0.348-0.014-1.247-0.07-2.406-0.169c-1.695-0.145-2.288-0.216-2.441-0.236c-4.54-0.797-9.167,0.438-12.708,3.395    c-3.58,2.987-5.634,7.362-5.634,12.004c0,0.5,0.021,0.957,0.059,1.338c0.088,1.02,0.132,2.123,0.132,3.281    c0,4.625-0.759,9.114-2.256,13.348c-3.867,10.969-12.651,19.371-22.924,21.932c-0.396,0.099-0.785,0.217-1.168,0.345    c-0.122,0.041-0.242,0.089-0.363,0.133c-0.259,0.095-0.516,0.193-0.768,0.301c-0.135,0.058-0.268,0.118-0.4,0.18    c-0.236,0.109-0.47,0.226-0.7,0.346c-0.126,0.066-0.252,0.132-0.375,0.2c-0.25,0.142-0.494,0.291-0.735,0.444    c-0.091,0.059-0.186,0.112-0.275,0.173c-0.325,0.218-0.643,0.447-0.948,0.688c-0.061,0.049-0.118,0.101-0.178,0.149    c-0.244,0.198-0.483,0.401-0.714,0.614c-0.099,0.09-0.193,0.185-0.289,0.277c-0.188,0.182-0.371,0.366-0.548,0.557    c-0.099,0.104-0.194,0.211-0.289,0.318c-0.173,0.195-0.339,0.395-0.501,0.6c-0.084,0.104-0.168,0.207-0.249,0.313    c-0.19,0.252-0.371,0.511-0.546,0.773c-0.042,0.063-0.088,0.123-0.129,0.188c-0.211,0.328-0.409,0.665-0.597,1.01    c-0.051,0.095-0.097,0.193-0.146,0.29c-0.132,0.254-0.258,0.511-0.375,0.772c-0.058,0.129-0.111,0.259-0.166,0.389    c-0.101,0.241-0.194,0.484-0.283,0.73c-0.049,0.136-0.098,0.271-0.143,0.409c-0.086,0.261-0.163,0.525-0.235,0.792    c-0.033,0.122-0.07,0.243-0.101,0.367c-0.011,0.041-0.024,0.082-0.034,0.123H197.355c-0.01-0.041-0.023-0.082-0.034-0.124    c-0.03-0.123-0.067-0.243-0.1-0.364c-0.073-0.268-0.15-0.532-0.236-0.794c-0.045-0.138-0.093-0.273-0.143-0.409    c-0.089-0.247-0.184-0.49-0.284-0.731c-0.054-0.13-0.107-0.259-0.164-0.387c-0.118-0.264-0.246-0.522-0.378-0.778    c-0.049-0.094-0.094-0.191-0.145-0.285c-0.188-0.345-0.386-0.683-0.598-1.012c-0.039-0.061-0.083-0.117-0.122-0.177    c-0.178-0.267-0.361-0.528-0.553-0.783c-0.08-0.104-0.163-0.206-0.244-0.308c-0.165-0.207-0.333-0.409-0.508-0.607    c-0.093-0.105-0.188-0.209-0.283-0.312c-0.18-0.193-0.365-0.38-0.556-0.563c-0.094-0.091-0.186-0.184-0.281-0.271    c-0.236-0.217-0.479-0.425-0.729-0.627c-0.055-0.045-0.107-0.093-0.163-0.137c-0.309-0.242-0.627-0.473-0.954-0.691    c-0.085-0.057-0.175-0.108-0.262-0.164c-0.245-0.157-0.494-0.31-0.749-0.453c-0.12-0.066-0.243-0.131-0.366-0.195    c-0.233-0.123-0.47-0.24-0.711-0.352c-0.13-0.06-0.26-0.119-0.393-0.176c-0.254-0.108-0.513-0.208-0.774-0.303    c-0.12-0.044-0.237-0.091-0.358-0.132c-0.383-0.128-0.771-0.246-1.169-0.345c-10.271-2.561-19.056-10.963-22.925-21.936    c-1.495-4.229-2.254-8.719-2.254-13.344c0-1.158,0.044-2.262,0.127-3.224c0.043-0.438,0.063-0.896,0.063-1.396    c0-4.642-2.054-9.017-5.634-12.004c-0.491-0.41-1.008-0.778-1.537-1.121c-3.291-2.129-7.26-2.957-11.172-2.273    c-0.152,0.021-0.746,0.092-2.443,0.236c-1.162,0.1-2.064,0.156-2.408,0.17c-0.016,0-0.035,0.001-0.049,0.002    c-2.127-0.006-4.273-0.26-6.377-0.756c-12.192-2.883-21.847-13.695-24.595-27.544c-0.083-0.423-0.188-0.837-0.304-1.247    c-0.035-0.126-0.076-0.249-0.114-0.374c-0.089-0.286-0.184-0.568-0.287-0.847c-0.049-0.134-0.1-0.267-0.152-0.398    c-0.114-0.285-0.238-0.565-0.368-0.842c-0.048-0.103-0.093-0.207-0.143-0.309c-0.185-0.371-0.38-0.734-0.592-1.087    c-0.034-0.059-0.073-0.113-0.108-0.171c-0.181-0.295-0.37-0.582-0.569-0.863c-0.075-0.106-0.154-0.211-0.232-0.315    c-0.172-0.231-0.35-0.457-0.533-0.678c-0.086-0.103-0.17-0.205-0.258-0.306c-0.212-0.241-0.432-0.475-0.657-0.703    c-0.062-0.063-0.12-0.128-0.182-0.189c-0.291-0.283-0.592-0.556-0.902-0.816c-0.073-0.063-0.151-0.119-0.226-0.18    c-0.243-0.195-0.489-0.386-0.742-0.566c-0.108-0.078-0.219-0.152-0.328-0.228c-0.237-0.161-0.479-0.315-0.726-0.463    c-0.108-0.065-0.216-0.132-0.326-0.194c-0.314-0.18-0.635-0.348-0.961-0.505c-0.04-0.02-0.079-0.042-0.118-0.061    c-0.368-0.173-0.744-0.329-1.126-0.473c-0.108-0.041-0.219-0.076-0.328-0.114c-0.181-0.064-0.359-0.133-0.542-0.189V137.37    c5.303-1.482,9.527-5.627,10.893-11.095c0.943-3.799,2.658-7.396,5.096-10.69c1.644-2.22,1.176-5.351-1.044-6.994    c-2.22-1.644-5.352-1.175-6.993,1.044c-3.227,4.359-5.502,9.146-6.763,14.224c-0.595,2.382-2.911,4.111-5.509,4.111h-1.27    c-3.121,0-5.66-2.539-5.66-5.66V30.65c0-3.115,2.539-5.65,5.66-5.65H187.3c3.115,0,5.65,2.535,5.65,5.65v1.03    c0,2.737-1.949,5.033-4.741,5.585c-17.688,3.499-31.562,16.101-35.345,32.105c-0.673,2.85-1.015,5.79-1.015,8.74    c0,0.038,0,0.076,0.001,0.114c0.016,0.678,0.115,2.063,0.207,3.127c0.2,2.366,0.292,2.957,0.322,3.151    c0.007,0.039,0.013,0.077,0.02,0.116c0.409,2.264-0.591,3.872-1.224,4.628c-1.08,1.292-2.653,2.034-4.315,2.034    c-0.145,0-0.294-0.003-0.495-0.022c-1.307-0.112-2.695-0.168-4.125-0.168c-3.48,0-6.945,0.354-10.298,1.053    c-2.704,0.563-4.438,3.211-3.875,5.915c0.563,2.703,3.213,4.439,5.914,3.875c2.684-0.559,5.462-0.843,8.259-0.843    c1.146,0,2.248,0.044,3.222,0.127c0.441,0.042,0.898,0.063,1.398,0.063c4.634,0,9.004-2.049,11.989-5.622    c2.963-3.546,4.202-8.182,3.406-12.732c-0.029-0.212-0.108-0.936-0.234-2.425c-0.098-1.141-0.16-2.124-0.172-2.459    c0.005-2.154,0.256-4.297,0.747-6.373c2.884-12.2,13.699-21.854,27.553-24.595c6.059-1.197,10.758-5.739,12.276-11.425H309.57    c0.005,0.017,0.011,0.034,0.016,0.051c0.023,0.086,0.053,0.17,0.078,0.256c0.091,0.313,0.188,0.624,0.299,0.93    c0.047,0.132,0.1,0.261,0.15,0.391c0.101,0.26,0.207,0.516,0.322,0.769c0.061,0.133,0.121,0.265,0.185,0.396    c0.126,0.257,0.259,0.509,0.397,0.759c0.063,0.111,0.121,0.224,0.186,0.333c0.201,0.34,0.412,0.674,0.637,0.998    c0.008,0.012,0.016,0.024,0.023,0.036c0.235,0.337,0.487,0.663,0.748,0.98c0.077,0.093,0.158,0.182,0.236,0.273    c0.19,0.221,0.386,0.438,0.588,0.649c0.1,0.104,0.2,0.204,0.303,0.305c0.198,0.195,0.401,0.385,0.609,0.57    c0.105,0.093,0.209,0.187,0.316,0.277c0.239,0.202,0.486,0.395,0.738,0.583c0.081,0.06,0.158,0.124,0.24,0.183    c0.336,0.241,0.681,0.469,1.036,0.684c0.081,0.05,0.166,0.093,0.249,0.141c0.277,0.161,0.56,0.316,0.849,0.462    c0.13,0.065,0.262,0.125,0.394,0.187c0.254,0.119,0.511,0.232,0.771,0.338c0.142,0.058,0.283,0.114,0.428,0.167    c0.273,0.102,0.552,0.194,0.833,0.282c0.13,0.04,0.259,0.084,0.391,0.121c0.412,0.117,0.83,0.222,1.257,0.306    c13.854,2.741,24.67,12.395,27.554,24.595c0.491,2.075,0.742,4.219,0.747,6.374c-0.012,0.335-0.074,1.319-0.173,2.466    c-0.125,1.482-0.204,2.206-0.233,2.416c-0.199,1.138-0.271,2.281-0.221,3.411c0.127,2.825,1.018,5.569,2.598,7.944    c0.315,0.475,0.659,0.935,1.029,1.378c2.985,3.573,7.355,5.622,11.989,5.622c0.5,0,0.957-0.021,1.347-0.058    c1.025-0.088,2.127-0.132,3.273-0.132c4.604,0,9.094,0.762,13.351,2.267c10.974,3.86,19.375,12.642,21.929,22.923    c0.098,0.393,0.215,0.776,0.342,1.154c0.039,0.12,0.085,0.235,0.127,0.354c0.096,0.261,0.195,0.519,0.303,0.773    c0.055,0.126,0.109,0.252,0.166,0.377c0.117,0.253,0.24,0.502,0.37,0.748c0.055,0.104,0.107,0.211,0.165,0.314    c0.188,0.339,0.387,0.671,0.6,0.992c0.028,0.044,0.062,0.085,0.091,0.128c0.188,0.278,0.384,0.549,0.589,0.813    c0.08,0.102,0.163,0.201,0.245,0.301c0.167,0.204,0.338,0.403,0.515,0.598c0.092,0.101,0.184,0.202,0.278,0.3    c0.192,0.201,0.392,0.396,0.595,0.586c0.08,0.075,0.156,0.152,0.238,0.226c0.285,0.255,0.577,0.501,0.881,0.736    c0.063,0.048,0.128,0.092,0.191,0.139c0.247,0.185,0.498,0.363,0.755,0.533c0.11,0.073,0.224,0.142,0.335,0.212    c0.224,0.139,0.449,0.273,0.68,0.401c0.119,0.066,0.236,0.131,0.357,0.194c0.258,0.135,0.52,0.261,0.786,0.382    c0.091,0.041,0.179,0.086,0.271,0.126c0.355,0.154,0.719,0.295,1.087,0.422c0.091,0.031,0.184,0.057,0.274,0.086    c0.212,0.069,0.424,0.141,0.64,0.202v46.161C415.92,186.3,418.158,188.539,420.92,188.539z"/><path d="M324.125,211.855c-0.018-0.135-0.023-0.271-0.053-0.402c-0.035-0.161-0.096-0.316-0.147-0.475    c-0.051-0.155-0.092-0.313-0.156-0.461c-0.056-0.126-0.133-0.244-0.199-0.366c-0.092-0.169-0.179-0.34-0.288-0.497    c-0.017-0.023-0.026-0.049-0.043-0.073c-0.07-0.097-0.158-0.172-0.234-0.262c-0.117-0.14-0.23-0.28-0.361-0.405    c-0.119-0.114-0.248-0.21-0.376-0.31c-0.126-0.1-0.249-0.201-0.385-0.288c-0.14-0.089-0.285-0.16-0.432-0.234    c-0.144-0.073-0.283-0.148-0.434-0.207c-0.153-0.06-0.311-0.101-0.468-0.146c-0.154-0.043-0.305-0.091-0.464-0.12    c-0.181-0.033-0.362-0.042-0.546-0.055c-0.116-0.008-0.228-0.035-0.347-0.035h-44.646l-13.787-42.455    c-0.037-0.114-0.098-0.212-0.142-0.321c-0.068-0.169-0.133-0.338-0.22-0.499c-0.077-0.143-0.168-0.272-0.258-0.405    c-0.091-0.136-0.178-0.272-0.282-0.399c-0.104-0.125-0.219-0.237-0.333-0.351c-0.114-0.115-0.227-0.231-0.353-0.335    c-0.127-0.104-0.264-0.191-0.399-0.282c-0.133-0.089-0.261-0.18-0.403-0.257c-0.165-0.089-0.339-0.156-0.513-0.226    c-0.105-0.042-0.199-0.101-0.309-0.136c-0.026-0.009-0.053-0.009-0.079-0.017c-0.192-0.059-0.392-0.092-0.591-0.128    c-0.126-0.023-0.251-0.057-0.377-0.07c-0.177-0.018-0.356-0.008-0.535-0.007c-0.15,0.001-0.3-0.009-0.448,0.006    c-0.147,0.015-0.294,0.054-0.441,0.082c-0.179,0.034-0.357,0.063-0.531,0.116c-0.028,0.009-0.058,0.009-0.086,0.019    c-0.118,0.038-0.221,0.101-0.333,0.146c-0.163,0.067-0.327,0.129-0.482,0.212c-0.149,0.08-0.284,0.175-0.423,0.269    c-0.13,0.087-0.261,0.17-0.382,0.27c-0.131,0.107-0.246,0.227-0.365,0.346c-0.11,0.111-0.222,0.219-0.322,0.34    c-0.107,0.13-0.196,0.27-0.29,0.409c-0.087,0.13-0.176,0.255-0.251,0.395c-0.09,0.166-0.157,0.341-0.228,0.516    c-0.042,0.104-0.1,0.198-0.135,0.307L237.45,207.52h-44.638c-0.121,0-0.233,0.027-0.353,0.036    c-0.179,0.013-0.357,0.021-0.534,0.054c-0.167,0.03-0.324,0.079-0.485,0.125c-0.149,0.043-0.298,0.081-0.443,0.138    c-0.16,0.063-0.31,0.142-0.461,0.22c-0.137,0.07-0.274,0.136-0.404,0.219c-0.146,0.093-0.276,0.2-0.411,0.307    c-0.119,0.095-0.241,0.185-0.353,0.291c-0.138,0.131-0.257,0.277-0.378,0.423c-0.072,0.086-0.155,0.157-0.223,0.249    c-0.017,0.022-0.025,0.048-0.041,0.071c-0.113,0.161-0.204,0.336-0.298,0.51c-0.063,0.118-0.138,0.231-0.19,0.352    c-0.067,0.153-0.11,0.316-0.162,0.476c-0.05,0.153-0.109,0.305-0.143,0.461c-0.029,0.134-0.036,0.274-0.055,0.412    c-0.025,0.191-0.055,0.381-0.059,0.573c0,0.028-0.008,0.055-0.008,0.083c0,0.119,0.027,0.229,0.035,0.346    c0.013,0.183,0.021,0.364,0.055,0.544c0.029,0.162,0.077,0.314,0.121,0.469s0.084,0.311,0.143,0.461    c0.062,0.154,0.138,0.298,0.212,0.444c0.073,0.142,0.142,0.284,0.229,0.42c0.09,0.141,0.194,0.269,0.298,0.399    c0.098,0.123,0.189,0.247,0.299,0.361c0.131,0.138,0.277,0.256,0.423,0.378c0.086,0.071,0.156,0.155,0.248,0.221l36.11,26.235    l-13.797,42.454c-0.035,0.108-0.043,0.218-0.07,0.326c-0.047,0.184-0.095,0.365-0.12,0.553c-0.021,0.157-0.023,0.313-0.029,0.469    c-0.007,0.166-0.017,0.331-0.007,0.498c0.01,0.16,0.038,0.316,0.063,0.474c0.025,0.163,0.048,0.323,0.09,0.483    c0.041,0.157,0.1,0.306,0.155,0.457c0.056,0.152,0.106,0.304,0.178,0.451c0.079,0.164,0.178,0.316,0.273,0.471    c0.063,0.1,0.106,0.206,0.177,0.303c0.022,0.031,0.049,0.057,0.071,0.087c0.035,0.046,0.074,0.089,0.111,0.135    c0.166,0.204,0.344,0.393,0.534,0.563c0.026,0.023,0.051,0.049,0.077,0.072c0.222,0.191,0.46,0.354,0.708,0.5    c0.047,0.028,0.095,0.057,0.144,0.083c0.261,0.143,0.53,0.263,0.81,0.356c0.016,0.005,0.029,0.015,0.046,0.02    c0.039,0.014,0.079,0.018,0.118,0.029c0.174,0.051,0.35,0.094,0.528,0.126c0.071,0.014,0.142,0.027,0.213,0.038    c0.209,0.028,0.42,0.047,0.631,0.049c0.019,0,0.037,0.004,0.056,0.004c0.105,0,0.209-0.018,0.313-0.024    c0.153-0.01,0.308-0.013,0.46-0.036c0.092-0.015,0.179-0.044,0.27-0.063c0.164-0.035,0.328-0.065,0.49-0.118    c0.084-0.027,0.162-0.068,0.245-0.1c0.192-0.074,0.384-0.154,0.569-0.254c0.199-0.105,0.394-0.22,0.577-0.352    c0.004-0.004,0.009-0.006,0.013-0.008l36.118-26.238l36.115,26.238c0.004,0.002,0.009,0.004,0.013,0.008    c0.18,0.129,0.372,0.241,0.567,0.346c0.21,0.113,0.425,0.205,0.644,0.285c0.061,0.023,0.118,0.055,0.181,0.074    c0.167,0.055,0.338,0.087,0.509,0.123c0.084,0.018,0.165,0.045,0.25,0.059c0.154,0.023,0.311,0.027,0.466,0.037    c0.103,0.006,0.204,0.023,0.309,0.023c0.019,0,0.037-0.004,0.056-0.004c0.211-0.002,0.422-0.021,0.631-0.049    c0.071-0.011,0.142-0.024,0.213-0.038c0.179-0.032,0.354-0.075,0.529-0.127c0.039-0.011,0.078-0.015,0.117-0.028    c0.017-0.005,0.029-0.014,0.046-0.02c0.279-0.094,0.549-0.214,0.81-0.356c0.049-0.026,0.096-0.055,0.145-0.083    c0.246-0.146,0.484-0.309,0.706-0.499c0.028-0.024,0.053-0.052,0.081-0.077c0.188-0.168,0.363-0.354,0.527-0.556    c0.039-0.048,0.08-0.093,0.117-0.142c0.021-0.029,0.047-0.054,0.068-0.084c0.068-0.093,0.11-0.195,0.171-0.292    c0.099-0.159,0.2-0.314,0.281-0.483c0.069-0.145,0.119-0.293,0.174-0.441c0.058-0.154,0.117-0.307,0.159-0.467    c0.04-0.157,0.063-0.315,0.088-0.475c0.025-0.161,0.054-0.319,0.063-0.482c0.01-0.164-0.001-0.326-0.007-0.49    c-0.006-0.159-0.008-0.316-0.029-0.477c-0.025-0.184-0.073-0.363-0.118-0.544c-0.028-0.11-0.036-0.222-0.072-0.333l-13.791-42.453    l36.114-26.235c0.094-0.068,0.168-0.154,0.256-0.229c0.143-0.119,0.285-0.234,0.413-0.369c0.112-0.117,0.206-0.244,0.306-0.37    c0.101-0.128,0.203-0.252,0.292-0.391c0.088-0.138,0.158-0.283,0.231-0.428c0.074-0.144,0.149-0.285,0.209-0.437    c0.06-0.153,0.101-0.311,0.146-0.468c0.043-0.153,0.09-0.304,0.119-0.462c0.033-0.183,0.043-0.367,0.056-0.552    c0.008-0.114,0.034-0.224,0.034-0.34c0-0.028-0.008-0.054-0.009-0.082C324.182,212.243,324.151,212.05,324.125,211.855z     M267.29,217.52l6.972,21.46L256,252.247l-18.26-13.266l6.975-21.461H267.29z M256.001,182.792l8.03,24.728h-16.066    L256.001,182.792z M208.201,217.52H234.2l-4.966,15.281L208.201,217.52z M226.453,273.711l8.037-24.731l13.003,9.446    L226.453,273.711z M285.544,273.711l-21.038-15.283l13.005-9.447L285.544,273.711z M277.805,217.52h25.998l-21.034,15.28    L277.805,217.52z"/><path d="M256.003,323.33c50.636,0,91.83-41.195,91.83-91.83c0-50.641-41.194-91.84-91.83-91.84    c-13.489,0-26.486,2.858-38.63,8.496c-2.505,1.163-3.593,4.136-2.43,6.641s4.136,3.592,6.641,2.43    c10.814-5.021,22.395-7.566,34.419-7.566c45.121,0,81.83,36.713,81.83,81.84c0,45.121-36.709,81.83-81.83,81.83    c-45.127,0-81.84-36.709-81.84-81.83c0-19.766,7.142-38.849,20.107-53.733c1.814-2.082,1.597-5.24-0.485-7.054    c-2.082-1.813-5.24-1.596-7.054,0.486c-14.554,16.705-22.568,38.12-22.568,60.301C164.163,282.135,205.362,323.33,256.003,323.33z    "/><path d="M270.173,117.63c0-7.813-6.356-14.17-14.17-14.17s-14.17,6.356-14.17,14.17s6.356,14.17,14.17,14.17    S270.173,125.443,270.173,117.63z M251.833,117.63c0-2.299,1.871-4.17,4.17-4.17s4.17,1.871,4.17,4.17s-1.871,4.17-4.17,4.17    S251.833,119.929,251.833,117.63z"/><path d="M312.926,147.064c4.903,0,9.677-2.543,12.296-7.083c1.893-3.274,2.396-7.091,1.418-10.747    c-0.979-3.656-3.32-6.712-6.593-8.603c-3.279-1.896-7.102-2.402-10.761-1.421c-3.655,0.979-6.711,3.323-8.605,6.603    c-3.901,6.77-1.577,15.453,5.186,19.358C308.092,146.455,310.524,147.064,312.926,147.064z M309.342,130.811    c0.557-0.963,1.456-1.653,2.532-1.941c0.359-0.096,0.723-0.144,1.085-0.144c0.724,0,1.438,0.19,2.083,0.563    c1.987,1.148,2.67,3.701,1.521,5.689c-0.001,0.001-0.002,0.003-0.003,0.004c-1.147,1.992-3.703,2.675-5.697,1.527    C308.875,135.362,308.194,132.803,309.342,130.811z"/><path d="M354.663,188.771c2.396,0,4.825-0.608,7.046-1.889h0.001c3.28-1.891,5.627-4.947,6.607-8.605    c0.979-3.655,0.478-7.474-1.413-10.752c-1.89-3.28-4.943-5.626-8.601-6.608c-3.654-0.981-7.475-0.479-10.748,1.412    c-3.28,1.891-5.627,4.946-6.607,8.604c-0.979,3.655-0.478,7.473,1.412,10.746C344.981,186.225,349.758,188.771,354.663,188.771z     M350.607,173.521c0.288-1.075,0.978-1.973,1.946-2.531c0.641-0.37,1.352-0.559,2.073-0.559c0.362,0,0.727,0.047,1.086,0.144    c1.074,0.288,1.972,0.978,2.527,1.942c0.558,0.968,0.706,2.095,0.418,3.172c-0.288,1.075-0.978,1.973-1.942,2.529h0.001    c-1.991,1.147-4.544,0.458-5.694-1.538C350.467,175.718,350.319,174.596,350.607,173.521z"/><path d="M369.882,245.73c3.771,0,7.318-1.468,9.991-4.136c2.683-2.677,4.16-6.237,4.16-10.015    c0.015-7.809-6.333-14.174-14.16-14.189c-7.803,0-14.164,6.352-14.181,14.17c0,7.813,6.355,14.169,14.168,14.17    C369.868,245.73,369.874,245.73,369.882,245.73z M365.692,231.571c0.005-2.305,1.88-4.181,4.171-4.181    c2.304,0.004,4.175,1.875,4.17,4.18c0,1.112-0.435,2.159-1.224,2.946c-0.784,0.783-1.824,1.214-2.929,1.214    c-0.006,0-0.013,0-0.019,0C367.563,235.73,365.692,233.859,365.692,231.571z"/><path d="M347.472,300.77c2.227,1.287,4.662,1.9,7.067,1.899c4.895,0,9.664-2.534,12.292-7.065    c1.898-3.281,2.404-7.104,1.424-10.764c-0.979-3.656-3.325-6.711-6.594-8.596c-3.271-1.896-7.087-2.404-10.742-1.432    c-3.662,0.976-6.725,3.32-8.625,6.606c-1.893,3.274-2.396,7.091-1.418,10.747C341.854,295.822,344.197,298.878,347.472,300.77z     M350.951,286.424c0.561-0.969,1.463-1.661,2.542-1.948c0.355-0.095,0.715-0.142,1.073-0.142c0.724,0,1.439,0.191,2.09,0.568    c0.963,0.555,1.652,1.451,1.939,2.525c0.288,1.076,0.139,2.201-0.418,3.164c-1.154,1.99-3.711,2.67-5.701,1.521    c-0.001-0.001-0.002-0.001-0.003-0.002c-0.962-0.556-1.649-1.453-1.937-2.528C350.249,288.506,350.396,287.383,350.951,286.424z"/><path d="M316.516,316.482c-3.659-0.984-7.479-0.484-10.742,1.401c-3.281,1.884-5.632,4.935-6.617,8.589    c-0.986,3.657-0.488,7.478,1.401,10.76c1.885,3.279,4.935,5.629,8.588,6.614c1.228,0.331,2.474,0.495,3.712,0.495    c2.451,0,4.871-0.643,7.053-1.9c3.279-1.89,5.627-4.943,6.61-8.598c0.985-3.658,0.485-7.477-1.405-10.751    C323.225,319.813,320.171,317.465,316.516,316.482z M316.864,331.244c-0.289,1.077-0.981,1.977-1.947,2.533    c-0.967,0.557-2.091,0.705-3.168,0.414c-1.072-0.289-1.968-0.979-2.521-1.941c-0.001-0.002-0.003-0.004-0.004-0.006    c-0.557-0.967-0.703-2.092-0.413-3.167c0.289-1.073,0.979-1.968,1.952-2.527c0.638-0.368,1.346-0.557,2.064-0.557    c0.363,0,0.729,0.048,1.089,0.146c1.077,0.289,1.978,0.981,2.536,1.951C317.008,329.051,317.153,330.17,316.864,331.244z"/><path d="M241.692,345.34c0,0.004,0,0.007,0,0.01c0,7.819,6.353,14.18,14.15,14.18c0.01,0,0.02,0,0.029,0    c3.779,0,7.331-1.468,10.005-4.137c2.681-2.674,4.156-6.234,4.156-10.013c0.015-7.809-6.333-14.175-14.16-14.19    C248.07,331.189,241.709,337.537,241.692,345.34z M260.033,345.37c0,1.114-0.434,2.159-1.22,2.944    c-0.785,0.784-1.83,1.215-2.952,1.215c-0.003,0-0.006,0-0.009,0c-2.293,0-4.158-1.872-4.16-4.175    c0.009-2.297,1.883-4.165,4.171-4.165C258.167,341.195,260.038,343.065,260.033,345.37z"/><path d="M206.023,317.76c-6.758-3.903-15.442-1.588-19.355,5.162c-0.002,0.002-0.003,0.005-0.004,0.008    c-3.904,6.758-1.59,15.441,5.165,19.357c2.19,1.269,4.622,1.916,7.085,1.916c1.23,0,2.469-0.162,3.688-0.488    c3.652-0.979,6.704-3.322,8.585-6.586c1.9-3.276,2.409-7.096,1.435-10.754C211.647,322.718,209.305,319.658,206.023,317.76z     M202.53,332.124c-0.553,0.959-1.446,1.646-2.516,1.931c-1.076,0.291-2.206,0.141-3.173-0.42    c-1.987-1.152-2.669-3.709-1.521-5.701c1.153-1.984,3.707-2.664,5.697-1.516c0.965,0.559,1.654,1.457,1.94,2.532    C203.246,330.025,203.096,331.148,202.53,332.124z"/><path d="M153.604,301.957c1.229,0.33,2.476,0.494,3.714,0.494c2.45,0,4.868-0.641,7.044-1.895    c6.773-3.889,9.118-12.566,5.223-19.354c-1.893-3.283-4.951-5.633-8.611-6.615c-3.651-0.979-7.465-0.479-10.737,1.41    c-3.281,1.886-5.632,4.938-6.618,8.594c-0.985,3.656-0.487,7.476,1.398,10.748C146.9,298.621,149.95,300.971,153.604,301.957z     M153.273,287.195c0.291-1.076,0.982-1.975,1.948-2.529c0.004-0.002,0.008-0.004,0.012-0.006c0.638-0.369,1.346-0.557,2.064-0.557    c0.361,0,0.726,0.047,1.085,0.144c1.079,0.29,1.98,0.981,2.533,1.942c1.146,1.996,0.459,4.551-1.539,5.698    c-0.967,0.557-2.091,0.706-3.168,0.413c-1.073-0.289-1.968-0.979-2.524-1.947C153.13,289.391,152.984,288.27,153.273,287.195z"/><path d="M142.134,217.13c-3.776,0-7.327,1.465-10.001,4.126c-2.682,2.67-4.163,6.226-4.17,10.014    c-0.007,3.788,1.463,7.351,4.14,10.033c2.676,2.681,6.234,4.157,10.011,4.157c0.01,0,0.02,0,0.029,0    c3.772,0,7.32-1.465,9.993-4.128c2.68-2.67,4.16-6.226,4.167-10.012c0.007-3.789-1.463-7.353-4.141-10.036    c-2.674-2.679-6.229-4.154-10.01-4.154C142.146,217.13,142.14,217.13,142.134,217.13z M146.303,231.3    c-0.002,1.116-0.438,2.163-1.225,2.948c-0.787,0.784-1.861,1.206-2.955,1.212c-1.111,0-2.156-0.434-2.942-1.221    c-0.787-0.789-1.22-1.836-1.218-2.949c0.002-1.116,0.438-2.162,1.225-2.946c0.787-0.783,1.833-1.214,2.947-1.214    c0.004,0,0.012,0,0.018,0c1.106,0,2.147,0.433,2.932,1.219C145.872,229.138,146.305,230.187,146.303,231.3z"/><path d="M164.611,162.115c-6.761-3.92-15.445-1.61-19.365,5.147c-3.918,6.759-1.608,15.445,5.148,19.363    c2.232,1.294,4.673,1.909,7.085,1.909c4.89,0,9.654-2.53,12.278-7.056C173.677,174.72,171.368,166.033,164.611,162.115z     M161.107,176.462c-1.152,1.987-3.711,2.665-5.696,1.513c-1.987-1.152-2.666-3.708-1.514-5.696    c0.559-0.962,1.458-1.65,2.534-1.936c0.356-0.095,0.718-0.142,1.077-0.142c0.726,0,1.441,0.191,2.085,0.564    C161.582,171.918,162.261,174.474,161.107,176.462z"/><path d="M202.99,119.086c-3.657-0.992-7.48-0.499-10.767,1.387c-3.285,1.886-5.638,4.939-6.625,8.598    c-0.985,3.656-0.488,7.476,1.397,10.748c1.885,3.283,4.934,5.635,8.587,6.623c1.229,0.333,2.478,0.497,3.719,0.497    c2.446,0,4.862-0.64,7.04-1.893c3.282-1.884,5.633-4.934,6.619-8.587c0.986-3.651,0.491-7.468-1.393-10.749    C209.688,122.429,206.642,120.077,202.99,119.086z M203.307,133.853c-0.289,1.072-0.979,1.967-1.947,2.522    c-0.967,0.558-2.092,0.705-3.166,0.413c-1.073-0.29-1.97-0.982-2.528-1.955c-0.555-0.963-0.701-2.084-0.411-3.158    c0.29-1.076,0.982-1.975,1.948-2.529c0.642-0.368,1.352-0.556,2.071-0.556c0.367,0,0.736,0.049,1.1,0.147    c1.073,0.291,1.968,0.982,2.521,1.947c0.001,0.002,0.002,0.003,0.003,0.005C203.451,131.656,203.597,132.779,203.307,133.853z"/><path d="M341.743,394c0-2.762-2.238-5-5-5H174.988c-2.762,0-5,2.238-5,5s2.238,5,5,5h161.755    C339.505,399,341.743,396.762,341.743,394z"/><path d="M207.95,416.275c-2.762,0-5,2.239-5,5c0,2.762,2.238,5,5,5h95.83c2.762,0,5-2.238,5-5c0-2.761-2.238-5-5-5H207.95z"/></g></g></svg>